:version 1.10
:name ASF
:units
  mass 1
  length 1
  angle deg
:documentation
  ASF file generated by Kaydara
:root
  axis xyz
  order  tx ty tz rx ry rz
  position 0 0 0
  orientation 0 0 0
:bonedata
  begin
    id 1
    name RightUpLegDummy
    direction -0.718183 -0.695806 0.00816078
    length 4.904
    axis 0 0 0 xyz
  end
  begin
    id 2
    name RightUpLeg
    direction -0.0736652 -0.994202 0.0783343
    length 17.4976
    axis -2.72909 -3.00389 -4.00133 xyz
    dof rx ry rz
  end
  begin
    id 3
    name RightLeg
    direction -0.0389037 -0.994596 -0.0962598
    length 16.5821
    axis 3.95836 -18.5909 -4.46993 xyz
    dof rx ry rz
  end
  begin
    id 4
    name RightFoot
    direction -0.311643 -0.412678 0.855906
    length 3.77069
    axis -1.99483 -18.8351 -3.27644 xyz
    dof rx ry rz
  end
  begin
    id 5
    name RightToes
    direction -0.317852 0.0389852 0.947339
    length 3.85082
    axis -2.00228 -18.1713 -3.25211 xyz
    dof rx ry rz
  end
  begin
    id 6
    name SpineDummy
    direction 8.3039e-015 1 4.44677e-016
    length 4.6813
    axis 0 0 0 xyz
  end
  begin
    id 7
    name Spine
    direction -0.000262373 0.999988 0.00493267
    length 10.1015
    axis -0.00246081 0.00062579 0.0150362 xyz
    dof rx ry rz
  end
  begin
    id 8
    name Spine1
    direction 0 0 0
    length 0
    axis -0.00349562 0.000650293 0.0196666 xyz
    dof rx ry rz
  end
  begin
    id 9
    name HEadDummy
    direction -0.000343232 0.999999 0.00123745
    length 3.43865
    axis -0.00349562 0.000650293 0.0196666 xyz
  end
  begin
    id 10
    name HEad
    direction -0.0461221 0.980933 0.188796
    length 5.12695
    axis -0.00351404 -7.04812 0.0199272 xyz
    dof rx ry rz
  end
  begin
    id 11
    name LeftShoulder1Dummy
    direction 0.998904 -0.0399089 -0.0244534
    length 3.5433
    axis -0.00349562 0.000650293 0.0196666 xyz
  end
  begin
    id 12
    name LeftShoulder1
    direction 0.99951 1.64443e-005 0.0312999
    length 4.05031
    axis -0.00349562 0.000650293 0.0196666 xyz
    dof rx ry rz
  end
  begin
    id 13
    name LeftArm
    direction 0.984791 0.0515299 0.165927
    length 12.9126
    axis -64.823 -10.7743 5.20463 xyz
    dof rx ry rz
  end
  begin
    id 14
    name LeftForeArm
    direction 0.984968 0.0534808 0.16425
    length 10.8596
    axis -30.0462 -7.70601 1.87451 xyz
    dof rx ry rz
  end
  begin
    id 15
    name LeftHand
    direction 0.975871 0.0289682 0.216418
    length 6.62295
    axis -20.1348 -6.98077 1.86072 xyz
    dof rx ry rz
  end
  begin
    id 16
    name RightShoulderDummy
    direction -0.998877 -0.0405946 -0.0244307
    length 3.5433
    axis -0.00349562 0.000650293 0.0196666 xyz
  end
  begin
    id 17
    name RightShoulder
    direction -0.998933 -0.0249743 -0.0388558
    length 4.05031
    axis -0.0205316 -4.02113 1.41395 xyz
    dof rx ry rz
  end
  begin
    id 18
    name RightArm
    direction -0.997559 0.068664 0.0127103
    length 12.9638
    axis -67.3882 1.84188 -6.15987 xyz
    dof rx ry rz
  end
  begin
    id 19
    name RightForeArm
    direction -0.991508 0.0912848 0.0926241
    length 10.8312
    axis -22.1975 3.41087 -4.28711 xyz
    dof rx ry rz
  end
  begin
    id 20
    name RightHand
    direction -0.989262 0.0600788 0.133232
    length 6.57864
    axis -12.2911 2.17515 -4.39675 xyz
    dof rx ry rz
  end
  begin
    id 21
    name LeftUpLegDummy
    direction 0.718183 -0.695806 0.00816078
    length 4.904
    axis 0 0 0 xyz
  end
  begin
    id 22
    name LeftUpLeg
    direction 0.0831398 -0.99469 0.0606531
    length 17.4976
    axis -1.71016 2.29552 4.63832 xyz
    dof rx ry rz
  end
  begin
    id 23
    name LeftLeg
    direction 0.0498442 -0.991778 -0.117862
    length 16.5821
    axis 5.13757 15.5727 5.13348 xyz
    dof rx ry rz
  end
  begin
    id 24
    name LeftFoot
    direction 0.269026 -0.433896 0.85986
    length 3.77069
    axis -0.576502 15.6961 4.10267 xyz
    dof rx ry rz
  end
  begin
    id 25
    name LeftToes
    direction 0.277311 0.0251143 0.960452
    length 3.85048
    axis -0.576502 15.6961 4.10267 xyz
    dof rx ry rz
  end
:hierarchy
  begin
    root RightUpLegDummy SpineDummy LeftUpLegDummy
    RightUpLegDummy RightUpLeg
    RightUpLeg RightLeg
    RightLeg RightFoot
    RightFoot RightToes
    SpineDummy Spine
    Spine Spine1
    Spine1 HEadDummy LeftShoulder1Dummy RightShoulderDummy
    HEadDummy HEad
    LeftShoulder1Dummy LeftShoulder1
    LeftShoulder1 LeftArm
    LeftArm LeftForeArm
    LeftForeArm LeftHand
    RightShoulderDummy RightShoulder
    RightShoulder RightArm
    RightArm RightForeArm
    RightForeArm RightHand
    LeftUpLegDummy LeftUpLeg
    LeftUpLeg LeftLeg
    LeftLeg LeftFoot
    LeftFoot LeftToes
  end

:SAMPLES-PER-SECOND 30
:FULLY-SPECIFIED
:DEGREES
1
root  -1.74069 6.24334 15.7679 -41.3333 -2.78848 5.78206
RightUpLeg  -92.0448 -3.74715 11.0591
RightLeg  83.9068 15.6209 -5.33923
RightFoot  26.7851 2.60981 -7.456
RightToes  5.82077e-011 -3.18055e-015 -2.98177e-016
Spine  27.5814 4.14357 4.15722
Spine1  22.4693 2.10701 1.31437
HEad  16.3601 2.70368 -5.02978
LeftShoulder1  -3.88251e-019 9.70628e-020 -3.87848e-018
LeftArm  96.6509 85.1511 24.5601
LeftForeArm  -21.4197 -42.3245 9.23552
LeftHand  -7.37584 -9.35988 55.3054
RightShoulder  5.76837 9.95279 27.4691
RightArm  51.2943 -67.4962 -18.701
RightForeArm  -34.7247 45.217 -25.1729
RightHand  -5.77481 4.94828 -58.707
LeftUpLeg  -91.8036 7.23757 -1.60182
LeftLeg  92.1932 -13.6468 2.15334
LeftFoot  35.8428 1.02795 -2.00502
LeftToes  5.91571e-011 -3.44359e-011 -3.93244e-011
2
root  -1.58708 6.28349 15.8384 -41.6013 -4.22696 5.38646
RightUpLeg  -91.91 -3.19376 9.72245
RightLeg  85.6997 15.8331 -2.33319
RightFoot  29.2259 2.30052 -6.22239
RightToes  5.82077e-011 -3.18055e-015 -2.98177e-016
Spine  28.1167 3.927 4.6101
Spine1  22.2783 2.4503 0.743667
HEad  15.2014 3.236 -4.9916
LeftShoulder1  -3.88251e-019 9.70628e-020 -3.87848e-018
LeftArm  98.5134 84.7048 26.9319
LeftForeArm  -18.1646 -41.0982 8.96627
LeftHand  -7.84604 -10.0118 56.1228
RightShoulder  5.84722 9.99068 27.8268
RightArm  51.9194 -67.0479 -19.9316
RightForeArm  -27.1043 43.5251 -24.1478
RightHand  -6.47455 6.05481 -59.3358
LeftUpLeg  -92.0087 7.62318 -0.363709
LeftLeg  92.6889 -13.7215 2.84928
LeftFoot  36.3384 0.761524 -1.42575
LeftToes  5.91571e-011 -3.44359e-011 -3.93244e-011
3
root  -1.46264 6.30811 15.9211 -42.1645 -5.26299 4.89574
RightUpLeg  -91.7285 -3.04794 7.87117
RightLeg  87.9072 15.9068 -1.307
RightFoot  29.4636 2.0712 -5.6086
RightToes  5.82077e-011 -3.18055e-015 -2.98177e-016
Spine  29.0229 3.51596 4.99172
Spine1  21.9704 2.57809 0.169463
HEad  13.8223 3.51826 -4.661
LeftShoulder1  -3.88251e-019 9.70628e-020 -3.87848e-018
LeftArm  88.6378 84.3174 16.0252
LeftForeArm  -14.7233 -37.6757 8.05231
LeftHand  -8.05774 -10.2276 56.7178
RightShoulder  5.88583 10.005 28.0098
RightArm  51.4095 -67.0152 -19.804
RightForeArm  -19.6185 40.4929 -22.1227
RightHand  -7.06176 6.66051 -61.1417
LeftUpLeg  -92.0404 7.85087 1.05814
LeftLeg  93.8754 -13.8495 3.62144
LeftFoot  33.0952 1.30687 -2.84852
LeftToes  5.91571e-011 -3.44359e-011 -3.93244e-011
4
root  -1.39572 6.31932 15.9501 -42.529 -5.88146 4.38335
RightUpLeg  -91.6574 -3.33582 6.33994
RightLeg  88.7251 15.9441 -3.28349
RightFoot  29.5565 1.60329 -4.40572
RightToes  5.82077e-011 -3.18055e-015 -2.98177e-016
Spine  30.0283 3.37779 4.72746
Spine1  21.1934 2.3871 0.531671
HEad  12.4998 3.47186 -4.35596
LeftShoulder1  -3.88251e-019 9.70628e-020 -3.87848e-018
LeftArm  68.0137 83.7284 -8.69597
LeftForeArm  -12.9362 -31.6401 5.88329
LeftHand  -8.92923 -10.6388 60.3449
RightShoulder  6.03349 10.0104 28.803
RightArm  49.5152 -66.1775 -18.4345
RightForeArm  -16.0644 36.6769 -19.5515
RightHand  -7.12564 6.41741 -62.6185
LeftUpLeg  -91.8667 7.84284 2.26321
LeftLeg  94.4968 -13.9391 4.09451
LeftFoot  30.9902 1.85747 -4.3532
LeftToes  5.91571e-011 -3.44359e-011 -3.93244e-011
5
root  -1.38527 6.30388 15.9099 -42.7122 -5.9261 4.18381
RightUpLeg  -91.4724 -3.81018 5.12647
RightLeg  88.2351 15.9678 -5.54927
RightFoot  29.309 1.21616 -3.43972
RightToes  5.82077e-011 -3.18055e-015 -2.98177e-016
Spine  30.6532 3.6089 3.40249
Spine1  20.8042 1.9723 1.70445
HEad  10.8708 3.26401 -4.05194
LeftShoulder1  -3.88251e-019 9.70628e-020 -3.87848e-018
LeftArm  40.0682 82.3545 -34.2369
LeftForeArm  -6.51951 -24.7923 0.264069
LeftHand  -10.8309 -11.3819 67.9272
RightShoulder  6.38566 10.1059 30.5051
RightArm  45.1838 -64.2156 -15.4895
RightForeArm  -15.7986 32.8737 -17.1143
RightHand  -7.19223 6.19296 -64.0583
LeftUpLeg  -91.6141 7.58803 2.4816
LeftLeg  94.2367 -13.9189 4.03925
LeftFoot  32.0553 1.76229 -4.02143
LeftToes  5.91571e-011 -3.44359e-011 -3.93244e-011
6
root  -1.39463 6.25057 15.8657 -43.031 -5.55989 4.34116
RightUpLeg  -90.787 -4.26429 4.08442
RightLeg  87.5802 15.9254 -6.10654
RightFoot  27.8697 1.38207 -3.99134
RightToes  5.82077e-011 -3.18055e-015 -2.98177e-016
Spine  30.5619 3.80077 1.62647
Spine1  21.84 1.50422 2.5202
HEad  8.49149 3.22247 -3.34906
LeftShoulder1  -3.88251e-019 9.70628e-020 -3.87848e-018
LeftArm  6.77674 81.1154 -50.0543
LeftForeArm  10.0751 -18.5281 -6.50335
LeftHand  -12.6701 -11.8265 75.1577
RightShoulder  6.71267 10.2451 31.9518
RightArm  39.0832 -62.3596 -11.0549
RightForeArm  -15.3517 30.0255 -15.4579
RightHand  -7.68486 6.48924 -66.2039
LeftUpLeg  -91.2141 7.16444 1.98274
LeftLeg  93.8069 -13.8363 3.52066
LeftFoot  34.0658 1.32123 -2.79628
LeftToes  5.91571e-011 -3.44359e-011 -3.93244e-011
7
root  -1.37362 6.19528 15.806 -43.388 -5.75096 4.4153
RightUpLeg  -90.3244 -4.52883 3.70449
RightLeg  87.1667 15.8829 -5.89838
RightFoot  28.9205 1.44741 -4.06887
RightToes  5.82077e-011 -3.18055e-015 -2.98177e-016
Spine  30.0066 3.74833 0.978039
Spine1  23.6349 1.24358 2.35122
HEad  5.73708 3.45726 -2.25324
LeftShoulder1  -3.88251e-019 9.70628e-020 -3.87848e-018
LeftArm  -12.7721 81.1004 -61.7916
LeftForeArm  13.547 -15.9549 -5.44133
LeftHand  -13.2111 -11.7523 77.7014
RightShoulder  6.65498 10.2133 31.7105
RightArm  33.6955 -61.7956 -5.60354
RightForeArm  -13.7601 28.2427 -14.5382
RightHand  -8.14868 6.818 -67.8931
LeftUpLeg  -90.7606 7.03749 2.15339
LeftLeg  93.5631 -13.793 3.22772
LeftFoot  34.9862 1.16577 -2.38208
LeftToes  5.91571e-011 -3.44359e-011 -3.93244e-011
8
root  -1.35007 6.1958 15.7387 -43.3939 -6.63397 3.94661
RightUpLeg  -89.5507 -4.55307 4.41014
RightLeg  85.9521 15.7635 -7.20736
RightFoot  30.7583 1.22131 -3.34195
RightToes  5.82077e-011 -3.18055e-015 -2.98177e-016
Spine  29.5815 3.49073 1.6768
Spine1  24.4932 1.33075 1.62236
HEad  3.47528 3.6238 -1.27397
LeftShoulder1  -3.88251e-019 9.70628e-020 -3.87848e-018
LeftArm  -20.2259 81.3879 -66.9497
LeftForeArm  13.8142 -16.0325 -3.81905
LeftHand  -13.0383 -11.7354 77.0059
RightShoulder  6.26545 9.97139 30.1399
RightArm  30.1931 -62.1113 -0.108078
RightForeArm  -12.679 26.3856 -13.6062
RightHand  -8.00204 6.5907 -67.904
LeftUpLeg  -90.665 7.24539 3.36435
LeftLeg  93.4412 -13.805 3.40063
LeftFoot  35.0395 1.31262 -2.70876
LeftToes  5.91571e-011 -3.44359e-011 -3.93244e-011
9
root  -1.34748 6.2407 15.6568 -43.1095 -7.41122 3.35021
RightUpLeg  -88.8551 -4.48306 5.3827
RightLeg  84.6997 15.601 -8.43847
RightFoot  32.0599 0.96328 -2.62547
RightToes  5.82077e-011 -3.18055e-015 -2.98177e-016
Spine  29.4844 3.36243 2.63644
Spine1  24.0359 1.56549 1.14672
HEad  1.95355 3.32166 -0.575728
LeftShoulder1  -3.88251e-019 9.70628e-020 -3.87848e-018
LeftArm  -19.8407 81.1388 -65.8705
LeftForeArm  15.0602 -15.1914 -3.81202
LeftHand  -13.2856 -12.0356 77.0555
RightShoulder  5.94327 9.74201 28.8604
RightArm  26.5526 -62.2021 4.45142
RightForeArm  -11.4975 23.4304 -12.0233
RightHand  -7.76759 6.35861 -67.3636
LeftUpLeg  -90.8169 7.42251 4.49197
LeftLeg  93.2222 -13.8065 3.52056
LeftFoot  35.1059 1.3787 -2.85179
LeftToes  5.91571e-011 -3.44359e-011 -3.93244e-011
10
root  -1.36823 6.25367 15.6175 -43.0581 -7.15407 3.3092
RightUpLeg  -88.66 -4.43038 5.35707
RightLeg  84.6867 15.6134 -7.62999
RightFoot  32.4175 1.14662 -3.04436
RightToes  5.82077e-011 -3.18055e-015 -2.98177e-016
Spine  29.5065 3.43176 2.65509
Spine1  23.4349 1.70908 0.989264
HEad  0.556994 2.61909 0.190524
LeftShoulder1  -3.88251e-019 9.70628e-020 -3.87848e-018
LeftArm  -19.0443 80.325 -64.7566
LeftForeArm  15.9031 -13.0788 -4.05646
LeftHand  -13.7816 -12.3063 78.2456
RightShoulder  5.88 9.72263 28.5489
RightArm  19.7282 -61.8969 7.89719
RightForeArm  -6.8466 19.8473 -9.72119
RightHand  -8.19929 6.88679 -67.902
LeftUpLeg  -90.7784 7.09973 4.38252
LeftLeg  93.0329 -13.7779 3.32129
LeftFoot  35.2887 1.29892 -2.66073
LeftToes  5.91571e-011 -3.44359e-011 -3.93244e-011
11
root  -1.38837 6.21306 15.657 -43.4015 -6.21527 3.73929
RightUpLeg  -88.7964 -4.20951 4.28181
RightLeg  85.6644 15.7512 -5.89258
RightFoot  32.4755 1.55333 -4.00498
RightToes  5.82077e-011 -3.18055e-015 -2.98177e-016
Spine  29.565 3.53545 2.09416
Spine1  23.337 1.78452 0.780526
HEad  -1.41406 1.89943 1.08607
LeftShoulder1  -3.88251e-019 9.70628e-020 -3.87848e-018
LeftArm  -20.2608 79.6101 -65.1781
LeftForeArm  16.2402 -11.2495 -3.63251
LeftHand  -13.7694 -12.197 78.5487
RightShoulder  5.91361 9.81169 28.5522
RightArm  11.6778 -61.7714 10.5361
RightForeArm  -0.147491 16.7266 -7.81568
RightHand  -8.91436 7.67765 -69.0798
LeftUpLeg  -90.4546 6.4408 3.50405
LeftLeg  93.012 -13.7692 3.23717
LeftFoot  35.47 1.29083 -2.63012
LeftToes  5.91571e-011 -3.44359e-011 -3.93244e-011
12
root  -1.39065 6.18227 15.7174 -43.7869 -5.60357 3.92197
RightUpLeg  -88.6976 -3.63132 3.12115
RightLeg  86.2919 15.8114 -5.33974
RightFoot  32.5976 1.70463 -4.35214
RightToes  5.82077e-011 -3.18055e-015 -2.98177e-016
Spine  29.9141 3.48913 2.19681
Spine1  23.0962 1.95007 0.352294
HEad  -4.14386 1.33703 1.64187
LeftShoulder1  -3.88251e-019 9.70628e-020 -3.87848e-018
LeftArm  -19.9677 79.1815 -64.2669
LeftForeArm  16.7218 -10.3417 -3.27104
LeftHand  -13.4227 -11.9389 77.963
RightShoulder  5.89145 9.85703 28.338
RightArm  8.01134 -62.0492 12.1814
RightForeArm  2.47542 14.5658 -7.14999
RightHand  -9.08969 7.86315 -69.3694
LeftUpLeg  -90.1334 5.89244 3.09235
LeftLeg  93.0481 -13.7976 3.51391
LeftFoot  35.651 1.39609 -2.85013
LeftToes  5.91571e-011 -3.44359e-011 -3.93244e-011
13
root  -1.38658 6.20069 15.7246 -43.9346 -5.40502 3.60217
RightUpLeg  -88.2469 -2.83431 2.22796
RightLeg  86.0874 15.7877 -5.95707
RightFoot  32.6971 1.66079 -4.23908
RightToes  5.82077e-011 -3.18055e-015 -2.98177e-016
Spine  30.6048 3.20629 3.1014
Spine1  22.2596 2.18931 -0.228095
HEad  -7.40767 0.830388 1.63697
LeftShoulder1  -3.88251e-019 9.70628e-020 -3.87848e-018
LeftArm  -16.9778 78.6624 -61.5284
LeftForeArm  17.2882 -9.49146 -3.57532
LeftHand  -13.3753 -11.8785 77.9627
RightShoulder  5.87246 9.89384 28.1592
RightArm  7.16529 -62.3431 12.4337
RightForeArm  2.40419 13.1881 -6.56672
RightHand  -8.91748 7.73026 -68.8811
LeftUpLeg  -89.9959 5.40625 3.29394
LeftLeg  92.9529 -13.8229 3.8252
LeftFoot  35.7227 1.4839 -3.03832
LeftToes  5.91571e-011 -3.44359e-011 -3.93244e-011
14
root  -1.38954 6.23098 15.6953 -43.9011 -4.93421 3.24987
RightUpLeg  -87.8954 -2.0645 1.06231
RightLeg  85.7249 15.7489 -6.40999
RightFoot  32.8895 1.6931 -4.29687
RightToes  5.82077e-011 -3.18055e-015 -2.98177e-016
Spine  31.2386 2.77501 3.81564
Spine1  21.3459 2.31746 -0.873099
HEad  -10.7482 0.366201 1.48369
LeftShoulder1  -3.88251e-019 9.70628e-020 -3.87848e-018
LeftArm  -14.4729 77.9301 -59.3935
LeftForeArm  17.8521 -8.12837 -3.96958
LeftHand  -13.5585 -11.9493 78.4975
RightShoulder  5.90494 9.97415 28.1758
RightArm  6.39449 -62.4641 12.4665
RightForeArm  2.49075 11.6288 -6.10193
RightHand  -9.11395 7.98701 -69.01
LeftUpLeg  -89.9643 4.69042 3.27023
LeftLeg  92.6991 -13.8261 4.00117
LeftFoot  35.6454 1.54638 -3.18216
LeftToes  5.91571e-011 -3.44359e-011 -3.93244e-011
15
root  -1.39114 6.23444 15.6981 -43.833 -4.13628 3.22583
RightUpLeg  -87.9442 -1.31924 -0.519685
RightLeg  85.7334 15.749 -6.40087
RightFoot  33.3233 1.68443 -4.23725
RightToes  5.82077e-011 -3.18055e-015 -2.98177e-016
Spine  31.4616 2.43164 3.95046
Spine1  20.8508 2.27605 -1.42093
HEad  -13.5759 0.0328086 1.58914
LeftShoulder1  -3.88251e-019 9.70628e-020 -3.87848e-018
LeftArm  -14.0209 77.2252 -58.7189
LeftForeArm  18.5452 -6.6262 -3.94175
LeftHand  -13.5282 -11.8976 78.5425
RightShoulder  5.9056 10.0325 28.0625
RightArm  4.89965 -62.6193 13.4373
RightForeArm  3.53336 9.77054 -5.94884
RightHand  -9.58005 8.45412 -69.8751
LeftUpLeg  -89.9868 3.91439 2.76371
LeftLeg  92.4651 -13.8339 4.23134
LeftFoot  35.6106 1.64941 -3.41232
LeftToes  5.91571e-011 -3.44359e-011 -3.93244e-011
